# xmcd
#
# Track frame offsets: 
#        150
#        9097
#        21979
#        32384
#        42528
#        52441
#        64715
#        75325
#        86386
#        95950
#        107404
#        116631
#
# Disc length: 1708 seconds
#
# Revision: 0
# Processed by: cddbd v1.5.2PL0 Copyright (c) Steve Scherf et al.
# Submitted via: ExactAudioCopy v1.0b1
#
DISCID=9006aa0c
DTITLE=Johnny Horton - I Can't Forget You
DYEAR=1965
DGENRE=Country
TTITLE0=Hot In The Sugarcane Field
TTITLE1=Lonesome And Heartbroken
TTITLE2=Seven Come Eleven
TTITLE3=I Can't Forget You
TTITLE4=Wise To The Ways Of A Woman
TTITLE5=The Same Old Tale The Crow Told Me
TTITLE6=Out In New Mexico
TTITLE7=Tetched In The Head
TTITLE8=Just Walk A Little Closer
TTITLE9=Don't Use My Heart For A Stepping Stone
TTITLE10=I Love You Baby
TTITLE11=Lost Highway
EXTD=
EXTT0=
EXTT1=
EXTT2=
EXTT3=
EXTT4=
EXTT5=
EXTT6=
EXTT7=
EXTT8=
EXTT9=
EXTT10=
EXTT11=
PLAYORDER=
